<?xml version="1.0" standalone="no"?>
<!DOCTYPE svg PUBLIC "-//W3C//DTD SVG 20010904//EN"
 "http://www.w3.org/TR/2001/REC-SVG-20010904/DTD/svg10.dtd">
<svg version="1.0" xmlns="http://www.w3.org/2000/svg"
 width="1280.000000pt" height="895.000000pt" viewBox="0 0 1280.000000 895.000000"
 preserveAspectRatio="xMidYMid meet">
<g transform="translate(0.000000,895.000000) scale(0.100000,-0.100000)"
fill="#000000" stroke="none">
<path d="M3720 8647 c-124 -122 -407 -393 -630 -602 -953 -891 -1327 -1269
-1706 -1720 -559 -667 -935 -1319 -1173 -2031 -61 -183 -173 -606 -163 -615 4
-4 45 -21 92 -38 214 -81 692 -275 760 -309 72 -36 76 -40 106 -102 42 -87
123 -162 234 -216 47 -23 328 -139 625 -257 894 -356 1355 -549 2295 -959 784
-343 1012 -426 1133 -415 50 4 72 1 125 -20 35 -14 67 -22 71 -17 29 33 211
358 204 364 -4 4 -118 101 -253 216 -691 587 -793 678 -987 877 -78 81 -145
157 -148 169 -7 27 15 95 50 154 35 60 141 154 220 196 250 130 866 250 1610
313 1167 98 2657 22 4355 -221 228 -32 361 -53 775 -119 200 -31 323 -33 399
-5 140 53 182 189 157 510 -26 325 -52 662 -61 770 -5 63 -21 259 -34 435 -50
626 -62 703 -130 820 -34 57 -122 137 -183 166 -44 20 -54 30 -63 60 -12 44
-33 225 -60 524 -12 127 -24 233 -28 236 -10 9 -526 132 -772 184 -793 169
-1492 267 -2310 322 -323 22 -1312 25 -1605 5 -793 -54 -1263 -118 -2132 -292
-308 -62 -359 -69 -350 -47 80 182 137 357 137 419 0 27 -30 68 -50 68 -23 0
-111 -39 -156 -70 -84 -58 -238 -185 -404 -336 -123 -111 -160 -140 -160 -124
0 63 132 361 425 960 252 515 345 715 345 739 -1 16 -286 220 -319 227 -10 3
-96 -75 -241 -219z"/>
</g>
</svg>
